{"title":"Chelovek.s.zheleznymi.kulakami.2012.1080p.WEB-DL-IRONCLUB","uid":8081117,"size":3265025567,"categoryP":"video","categoryS":"hd___movies","magnet":"?xt=urn:btih:f8b6601eb96b8624941b7faa012b616fcb96e88f&amp;dn=Chelovek.s.zheleznymi.kulakami.2012.1080p.WEB-DL-IRONCLUB&amp;tr=udp%3A%2F%2Ftracker.openbittorrent.com%3A80&amp;tr=udp%3A%2F%2Fopen.demonii.com%3A1337&amp;tr=udp%3A%2F%2Ftracker.coppersurfer.tk%3A6969&amp;tr=udp%3A%2F%2Fexodus.desync.com%3A6969","seeders":1,"leechers":0,"uploader":"maximersk","files":1,"time":1359500635,"description":"Chelovek.s.zheleznymi.kulakami.2012.1080p.WEB-DL-IRONCLUB\n\n\n\n\nGeneral\nComplete name                    : The.Man.with.the.Iron.Fists.2012.WEB-DL.1080p.TTLT.mkv\nFormat                           : Matroska\nFile size                        : 3.04 GiB\nDuration                         : 1h 35mn\nOverall bit rate                 : 4 574 Kbps\nEncoded date                     : UTC 2013-01-29 21:37:00\nWriting application              : mkvmerge v3.0.0 ('Hang up your Hang-Ups' built on Dec 29 2009 00:24:14\nWriting library                  : libebml v0.7.7 + libmatroska v0.8.1\n\nVideo\nID                               : 1\nFormat                           : AVC\nFormat/Info                      : Advanced Video Codec\nFormat profile                   : &lt;a class=&quot;__cf_email__&quot; href=&quot;/cdn-cgi/l/email-protection&quot; data-cfemail=&quot;f5bd9c929db5b9c1dbc5&quot;&gt;[email&amp;#160;protected]&lt;/a&gt;&lt;script cf-hash='f9e31' type=&quot;text/javascript&quot;&gt;\n/* &lt;![CDATA[ */!function(){try{var t=&quot;currentScript&quot;in document?document.currentScript:function(){for(var t=document.getElementsByTagName(&quot;script&quot;),e=t.length;e--;)if(t[e].getAttribute(&quot;cf-hash&quot;))return t[e]}();if(t&amp;&amp;t.previousSibling){var e,r,n,i,c=t.previousSibling,a=c.getAttribute(&quot;data-cfemail&quot;);if(a){for(e=&quot;&quot;,r=parseInt(a.substr(0,2),16),n=2;a.length-n;n+=2)i=parseInt(a.substr(n,2),16)^r,e+=String.fromCharCode(i);e=document.createTextNode(e),c.parentNode.replaceChild(e,c)}}}catch(u){}}();/* ]]&gt; */&lt;/script&gt;\nFormat settings, CABAC           : Yes\nFormat settings, ReFrames        : 5 frames\nCodec ID                         : V_MPEG4/ISO/AVC\nDuration                         : 1h 35mn\nBit rate                         : 4 098 Kbps\nWidth                            : 1 916 pixels\nHeight                           : 796 pixels\nDisplay aspect ratio             : 2.407\nFrame rate                       : 23.976 fps\nResolution                       : 24 bits\nColorimetry                      : 4:2:0\nScan type                        : Progressive\nBits/(Pixel*Frame)               : 0.112\nStream size                      : 2.72 GiB (90%)\nTitle                            : The Man With the Iron Fists (2012)\nLanguage                         : English\n\nAudio\nID                               : 2\nFormat                           : AC-3\nFormat/Info                      : Audio Coding 3\nCodec ID                         : A_AC3\nDuration                         : 1h 35mn\nBit rate mode                    : Constant\nBit rate                         : 384 Kbps\nChannel(s)                       : 6 channels\nChannel positions                : Front: L C R, Surround: L R, LFE\nSampling rate                    : 48.0 KHz\nStream size                      : 261 MiB (8%)\nTitle                            : DD 5.1 @ 384 kbps\nLanguage                         : English\n\nText\nID                               : 3\nFormat                           : UTF-8\nCodec ID                         : S_TEXT/UTF8\nCodec ID/Info                    : UTF-8 Plain Text\nLanguage                         : English","torrent":{"xt":"urn:btih:f8b6601eb96b8624941b7faa012b616fcb96e88f","amp;dn":"Chelovek.s.zheleznymi.kulakami.2012.1080p.WEB-DL-IRONCLUB","amp;tr":["udp%3A%2F%2Ftracker.openbittorrent.com%3A80","udp%3A%2F%2Fopen.demonii.com%3A1337","udp%3A%2F%2Ftracker.coppersurfer.tk%3A6969","udp%3A%2F%2Fexodus.desync.com%3A6969"],"infoHash":"f8b6601eb96b8624941b7faa012b616fcb96e88f","infoHashBuffer":{"type":"Buffer","data":[248,182,96,30,185,107,134,36,148,27,127,170,1,43,97,111,203,150,232,143]},"announce":[],"urlList":[]}}